<?xml version="1.0" encoding="UTF-8" standalone="no"?><svg xmlns="http://www.w3.org/2000/svg" xmlns:xlink="http://www.w3.org/1999/xlink" contentStyleType="text/css" height="1074px" preserveAspectRatio="none" style="width:1655px;height:1074px;background:#FFFFFF;" version="1.1" viewBox="0 0 1655 1074" width="1655px" zoomAndPan="magnify"><defs/><g><!--MD5=[b995f6e1e6c3ea27863eeb58ae196439]
cluster GenericRepository.Services.InMemory--><g id="cluster_GenericRepository.Services.InMemory"><path d="M8.5,6 L280.5,6 A3.75,3.75 0 0 1 283,8.5 L290,29.6094 L1645.5,29.6094 A2.5,2.5 0 0 1 1648,32.1094 L1648,1064.5 A2.5,2.5 0 0 1 1645.5,1067 L8.5,1067 A2.5,2.5 0 0 1 6,1064.5 L6,8.5 A2.5,2.5 0 0 1 8.5,6 " fill="none" style="stroke:#000000;stroke-width:1.5;"/><line style="stroke:#000000;stroke-width:1.5;" x1="6" x2="290" y1="29.6094" y2="29.6094"/><text fill="#000000" font-family="sans-serif" font-size="14" font-weight="bold" lengthAdjust="spacing" textLength="271" x="10" y="22.5332">GenericRepository.Services.InMemory</text></g><!--MD5=[4a42b3c3ff93b6e51884188baf3e1c46]
cluster Helpers--><g id="cluster_Helpers"><path d="M740.5,50 L796.5,50 A3.75,3.75 0 0 1 799,52.5 L806,73.6094 L1621.5,73.6094 A2.5,2.5 0 0 1 1624,76.1094 L1624,380.5 A2.5,2.5 0 0 1 1621.5,383 L740.5,383 A2.5,2.5 0 0 1 738,380.5 L738,52.5 A2.5,2.5 0 0 1 740.5,50 " fill="none" style="stroke:#000000;stroke-width:1.5;"/><line style="stroke:#000000;stroke-width:1.5;" x1="738" x2="806" y1="73.6094" y2="73.6094"/><text fill="#000000" font-family="sans-serif" font-size="14" font-weight="bold" lengthAdjust="spacing" textLength="55" x="742" y="66.5332">Helpers</text></g><!--MD5=[c018863fe2304e0ca952616611326b6e]
cluster Host--><g id="cluster_Host"><path d="M32.5,152.5 L65.5,152.5 A3.75,3.75 0 0 1 68,155 L75,176.1094 L711.5,176.1094 A2.5,2.5 0 0 1 714,178.6094 L714,278 A2.5,2.5 0 0 1 711.5,280.5 L32.5,280.5 A2.5,2.5 0 0 1 30,278 L30,155 A2.5,2.5 0 0 1 32.5,152.5 " fill="none" style="stroke:#000000;stroke-width:1.5;"/><line style="stroke:#000000;stroke-width:1.5;" x1="30" x2="75" y1="176.1094" y2="176.1094"/><text fill="#000000" font-family="sans-serif" font-size="14" font-weight="bold" lengthAdjust="spacing" textLength="32" x="34" y="169.0332">Host</text></g><!--MD5=[4091c218314007e070132c0736085af3]
class GenericInMemoryAsyncRepository--><g id="elem_GenericInMemoryAsyncRepository"><rect codeLine="27" fill="#F1F1F1" height="263.3125" id="GenericInMemoryAsyncRepository" rx="2.5" ry="2.5" style="stroke:#181818;stroke-width:0.5;" width="1185" x="446.5" y="788"/><ellipse cx="905.75" cy="804" fill="#ADD1B2" rx="11" ry="11" style="stroke:#181818;stroke-width:1.0;"/><path d="M908.5156,799.875 Q908.6719,799.6563 908.8594,799.5469 Q909.0469,799.4375 909.2656,799.4375 Q909.6406,799.4375 909.875,799.7031 Q910.1094,799.9531 910.1094,800.5625 L910.1094,802.0156 Q910.1094,802.625 909.875,802.8906 Q909.6406,803.1563 909.2656,803.1563 Q908.9219,803.1563 908.7188,802.9531 Q908.5156,802.7656 908.4063,802.25 Q908.3594,801.8906 908.1719,801.7031 Q907.8438,801.3281 907.2344,801.1094 Q906.625,800.8906 906,800.8906 Q905.2344,800.8906 904.5938,801.2188 Q903.9688,801.5469 903.4688,802.2969 Q902.9844,803.0469 902.9844,804.0781 L902.9844,805.1719 Q902.9844,806.4063 903.875,807.2344 Q904.7656,808.0469 906.3594,808.0469 Q907.2969,808.0469 907.9531,807.7969 Q908.3438,807.6406 908.7656,807.2031 Q909.0313,806.9375 909.1719,806.8594 Q909.3281,806.7813 909.5313,806.7813 Q909.8594,806.7813 910.1094,807.0469 Q910.375,807.2969 910.375,807.6406 Q910.375,807.9844 910.0313,808.3906 Q909.5313,808.9688 908.7344,809.2969 Q907.6563,809.75 906.3594,809.75 Q904.8438,809.75 903.6406,809.125 Q902.6563,808.625 901.9688,807.5625 Q901.2813,806.4844 901.2813,805.2031 L901.2813,804.0469 Q901.2813,802.7188 901.8906,801.5781 Q902.5156,800.4219 903.6094,799.8125 Q904.7031,799.1875 905.9375,799.1875 Q906.6719,799.1875 907.3125,799.3594 Q907.9688,799.5156 908.5156,799.875 Z " fill="#000000"/><text fill="#000000" font-family="sans-serif" font-size="14" lengthAdjust="spacing" textLength="217" x="926.25" y="809.7285">GenericInMemoryAsyncRepository</text><rect fill="#FFFFFF" height="17.0938" style="stroke:#181818;stroke-width:1.0;stroke-dasharray:2.0,2.0;" width="39" x="1595.5" y="785"/><text fill="#000000" font-family="sans-serif" font-size="12" font-style="italic" lengthAdjust="spacing" textLength="37" x="1596.5" y="798.457">TEntity</text><line style="stroke:#181818;stroke-width:0.5;" x1="447.5" x2="1630.5" y1="820" y2="820"/><rect fill="none" height="6" style="stroke:#C82930;stroke-width:1.0;" width="6" x="454.5" y="852.9141"/><text fill="#000000" font-family="sans-serif" font-size="14" lengthAdjust="spacing" textLength="322" x="466.5" y="860.1426">_repository : GenericInMemoryRepository&lt;TEntity&gt;</text><line style="stroke:#181818;stroke-width:1.0;" x1="447.5" x2="1006.5" y1="836.8047" y2="836.8047"/><text fill="#000000" font-family="sans-serif" font-size="14" lengthAdjust="spacing" textLength="65" x="1006.5" y="842.0332">Properties</text><line style="stroke:#181818;stroke-width:1.0;" x1="1071.5" x2="1630.5" y1="836.8047" y2="836.8047"/><ellipse cx="457.5" cy="895.1328" fill="#84BE84" rx="3" ry="3" style="stroke:#038048;stroke-width:1.0;"/><text fill="#000000" font-family="sans-serif" font-size="14" lengthAdjust="spacing" textLength="423" x="466.5" y="899.3613">GenericInMemoryAsyncRepository(entities : IEnumerable&lt;TEntity&gt;)</text><line style="stroke:#181818;stroke-width:1.0;" x1="447.5" x2="998.5" y1="876.0234" y2="876.0234"/><text fill="#000000" font-family="sans-serif" font-size="14" lengthAdjust="spacing" textLength="81" x="998.5" y="881.252">Constructors</text><line style="stroke:#181818;stroke-width:1.0;" x1="1079.5" x2="1630.5" y1="876.0234" y2="876.0234"/><ellipse cx="457.5" cy="934.3516" fill="#84BE84" rx="3" ry="3" style="stroke:#038048;stroke-width:1.0;"/><text fill="#000000" font-family="sans-serif" font-size="14" lengthAdjust="spacing" textLength="791" x="466.5" y="938.5801">GetAsync([Required] options : DataModelOptions&lt;TEntity&gt;, cancellationToken : CancellationToken = default) : Task&lt;TEntity&gt;</text><ellipse cx="457.5" cy="951.9609" fill="#84BE84" rx="3" ry="3" style="stroke:#038048;stroke-width:1.0;"/><text fill="#000000" font-family="sans-serif" font-size="14" lengthAdjust="spacing" textLength="1065" x="466.5" y="956.1895">GetAsync&lt;TDestination&gt;([Required] options : ComplexDataModelOptions&lt;TEntity, TDestination&gt;, cancellationToken : CancellationToken = default) : Task&lt;TDestination&gt;</text><ellipse cx="457.5" cy="969.5703" fill="#84BE84" rx="3" ry="3" style="stroke:#038048;stroke-width:1.0;"/><text fill="#000000" font-family="sans-serif" font-size="14" lengthAdjust="spacing" textLength="885" x="466.5" y="973.7988">ListAsync([Required] options : DataModelOptions&lt;TEntity&gt;, cancellationToken : CancellationToken = default) : Task&lt;IEnumerable&lt;TEntity&gt;&gt;</text><ellipse cx="457.5" cy="987.1797" fill="#84BE84" rx="3" ry="3" style="stroke:#038048;stroke-width:1.0;"/><text fill="#000000" font-family="sans-serif" font-size="14" lengthAdjust="spacing" textLength="1159" x="466.5" y="991.4082">ListAsync&lt;TDestination&gt;([Required] options : ComplexDataModelOptions&lt;TEntity, TDestination&gt;, cancellationToken : CancellationToken = default) : Task&lt;IEnumerable&lt;TDestination&gt;&gt;</text><ellipse cx="457.5" cy="1004.7891" fill="#84BE84" rx="3" ry="3" style="stroke:#038048;stroke-width:1.0;"/><text fill="#000000" font-family="sans-serif" font-size="14" lengthAdjust="spacing" textLength="606" x="466.5" y="1009.0176">CreateAsync([Required] entity : TEntity, cancellationToken : CancellationToken = default) : Task</text><ellipse cx="457.5" cy="1022.3984" fill="#84BE84" rx="3" ry="3" style="stroke:#038048;stroke-width:1.0;"/><text fill="#000000" font-family="sans-serif" font-size="14" lengthAdjust="spacing" textLength="997" x="466.5" y="1026.627">UpdateAsync([Required] searchClause : Expression&lt;Func&lt;TEntity, bool&gt;&gt;, [Required] entity : TEntity, cancellationToken : CancellationToken = default) : Task</text><ellipse cx="457.5" cy="1040.0078" fill="#84BE84" rx="3" ry="3" style="stroke:#038048;stroke-width:1.0;"/><text fill="#000000" font-family="sans-serif" font-size="14" lengthAdjust="spacing" textLength="809" x="466.5" y="1044.2363">DeleteAsync([Required] Expression&lt;Func&lt;TEntity, bool&gt;&gt; searchClause, CancellationToken cancellationToken = default) : Task</text><line style="stroke:#181818;stroke-width:1.0;" x1="447.5" x2="1012" y1="915.2422" y2="915.2422"/><text fill="#000000" font-family="sans-serif" font-size="14" lengthAdjust="spacing" textLength="54" x="1012" y="920.4707">Methods</text><line style="stroke:#181818;stroke-width:1.0;" x1="1066" x2="1630.5" y1="915.2422" y2="915.2422"/></g><!--MD5=[1b12a733888c7aa3bbed6f0dd5b51297]
class GenericInMemoryRepository--><g id="elem_GenericInMemoryRepository"><rect codeLine="42" fill="#F1F1F1" height="263.3125" id="GenericInMemoryRepository" rx="2.5" ry="2.5" style="stroke:#181818;stroke-width:0.5;" width="788" x="734" y="447"/><ellipse cx="1013.75" cy="463" fill="#ADD1B2" rx="11" ry="11" style="stroke:#181818;stroke-width:1.0;"/><path d="M1016.5156,458.875 Q1016.6719,458.6563 1016.8594,458.5469 Q1017.0469,458.4375 1017.2656,458.4375 Q1017.6406,458.4375 1017.875,458.7031 Q1018.1094,458.9531 1018.1094,459.5625 L1018.1094,461.0156 Q1018.1094,461.625 1017.875,461.8906 Q1017.6406,462.1563 1017.2656,462.1563 Q1016.9219,462.1563 1016.7188,461.9531 Q1016.5156,461.7656 1016.4063,461.25 Q1016.3594,460.8906 1016.1719,460.7031 Q1015.8438,460.3281 1015.2344,460.1094 Q1014.625,459.8906 1014,459.8906 Q1013.2344,459.8906 1012.5938,460.2188 Q1011.9688,460.5469 1011.4688,461.2969 Q1010.9844,462.0469 1010.9844,463.0781 L1010.9844,464.1719 Q1010.9844,465.4063 1011.875,466.2344 Q1012.7656,467.0469 1014.3594,467.0469 Q1015.2969,467.0469 1015.9531,466.7969 Q1016.3438,466.6406 1016.7656,466.2031 Q1017.0313,465.9375 1017.1719,465.8594 Q1017.3281,465.7813 1017.5313,465.7813 Q1017.8594,465.7813 1018.1094,466.0469 Q1018.375,466.2969 1018.375,466.6406 Q1018.375,466.9844 1018.0313,467.3906 Q1017.5313,467.9688 1016.7344,468.2969 Q1015.6563,468.75 1014.3594,468.75 Q1012.8438,468.75 1011.6406,468.125 Q1010.6563,467.625 1009.9688,466.5625 Q1009.2813,465.4844 1009.2813,464.2031 L1009.2813,463.0469 Q1009.2813,461.7188 1009.8906,460.5781 Q1010.5156,459.4219 1011.6094,458.8125 Q1012.7031,458.1875 1013.9375,458.1875 Q1014.6719,458.1875 1015.3125,458.3594 Q1015.9688,458.5156 1016.5156,458.875 Z " fill="#000000"/><text fill="#000000" font-family="sans-serif" font-size="14" lengthAdjust="spacing" textLength="179" x="1034.25" y="468.7285">GenericInMemoryRepository</text><rect fill="#FFFFFF" height="17.0938" style="stroke:#181818;stroke-width:1.0;stroke-dasharray:2.0,2.0;" width="39" x="1486" y="444"/><text fill="#000000" font-family="sans-serif" font-size="12" font-style="italic" lengthAdjust="spacing" textLength="37" x="1487" y="457.457">TEntity</text><line style="stroke:#181818;stroke-width:0.5;" x1="735" x2="1521" y1="479" y2="479"/><rect fill="none" height="6" style="stroke:#C82930;stroke-width:1.0;" width="6" x="742" y="511.9141"/><text fill="#000000" font-family="sans-serif" font-size="14" lengthAdjust="spacing" textLength="305" x="754" y="519.1426">_helper : EnumerableRepositoryHelper&lt;TEntity&gt;</text><line style="stroke:#181818;stroke-width:1.0;" x1="735" x2="1095.5" y1="495.8047" y2="495.8047"/><text fill="#000000" font-family="sans-serif" font-size="14" lengthAdjust="spacing" textLength="65" x="1095.5" y="501.0332">Properties</text><line style="stroke:#181818;stroke-width:1.0;" x1="1160.5" x2="1521" y1="495.8047" y2="495.8047"/><ellipse cx="745" cy="554.1328" fill="#84BE84" rx="3" ry="3" style="stroke:#038048;stroke-width:1.0;"/><text fill="#000000" font-family="sans-serif" font-size="14" lengthAdjust="spacing" textLength="385" x="754" y="558.3613">GenericInMemoryRepository(entities : IEnumerable&lt;TEntity&gt;)</text><line style="stroke:#181818;stroke-width:1.0;" x1="735" x2="1087.5" y1="535.0234" y2="535.0234"/><text fill="#000000" font-family="sans-serif" font-size="14" lengthAdjust="spacing" textLength="81" x="1087.5" y="540.252">Constructors</text><line style="stroke:#181818;stroke-width:1.0;" x1="1168.5" x2="1521" y1="535.0234" y2="535.0234"/><ellipse cx="745" cy="593.3516" fill="#84BE84" rx="3" ry="3" style="stroke:#038048;stroke-width:1.0;"/><text fill="#000000" font-family="sans-serif" font-size="14" lengthAdjust="spacing" textLength="394" x="754" y="597.5801">Get([Required] options : DataModelOptions&lt;TEntity&gt;) : TEntity</text><ellipse cx="745" cy="610.9609" fill="#84BE84" rx="3" ry="3" style="stroke:#038048;stroke-width:1.0;"/><text fill="#000000" font-family="sans-serif" font-size="14" lengthAdjust="spacing" textLength="668" x="754" y="615.1895">Get&lt;TDestination&gt;([Required] options : ComplexDataModelOptions&lt;TEntity, TDestination&gt;) : TDestination</text><ellipse cx="745" cy="628.5703" fill="#84BE84" rx="3" ry="3" style="stroke:#038048;stroke-width:1.0;"/><text fill="#000000" font-family="sans-serif" font-size="14" lengthAdjust="spacing" textLength="488" x="754" y="632.7988">List([Required] options : DataModelOptions&lt;TEntity&gt;) : IEnumerable&lt;TEntity&gt;</text><ellipse cx="745" cy="646.1797" fill="#84BE84" rx="3" ry="3" style="stroke:#038048;stroke-width:1.0;"/><text fill="#000000" font-family="sans-serif" font-size="14" lengthAdjust="spacing" textLength="762" x="754" y="650.4082">List&lt;TDestination&gt;([Required] options : ComplexDataModelOptions&lt;TEntity, TDestination&gt;) : IEnumerable&lt;TDestination&gt;</text><ellipse cx="745" cy="663.7891" fill="#84BE84" rx="3" ry="3" style="stroke:#038048;stroke-width:1.0;"/><text fill="#000000" font-family="sans-serif" font-size="14" lengthAdjust="spacing" textLength="181" x="754" y="668.0176">Create(entity : TEntity) : void</text><ellipse cx="745" cy="681.3984" fill="#84BE84" rx="3" ry="3" style="stroke:#038048;stroke-width:1.0;"/><text fill="#000000" font-family="sans-serif" font-size="14" lengthAdjust="spacing" textLength="572" x="754" y="685.627">Update([Required] searchClause : Expression&lt;Func&lt;TEntity, bool&gt;&gt;, entity : TEntity) : void</text><ellipse cx="745" cy="699.0078" fill="#84BE84" rx="3" ry="3" style="stroke:#038048;stroke-width:1.0;"/><text fill="#000000" font-family="sans-serif" font-size="14" lengthAdjust="spacing" textLength="470" x="754" y="703.2363">Delete([Required] searchClause : Expression&lt;Func&lt;TEntity, bool&gt;&gt;) : void</text><line style="stroke:#181818;stroke-width:1.0;" x1="735" x2="1101" y1="574.2422" y2="574.2422"/><text fill="#000000" font-family="sans-serif" font-size="14" lengthAdjust="spacing" textLength="54" x="1101" y="579.4707">Methods</text><line style="stroke:#181818;stroke-width:1.0;" x1="1155" x2="1521" y1="574.2422" y2="574.2422"/></g><!--MD5=[f8c53ab0f50d8abc372eac1ea224c0d2]
class EnumerableRepositoryHelper--><g id="elem_EnumerableRepositoryHelper"><rect codeLine="4" fill="#F1F1F1" height="280.9219" id="EnumerableRepositoryHelper" rx="2.5" ry="2.5" style="stroke:#181818;stroke-width:0.5;" width="853" x="754.5" y="86"/><ellipse cx="1063.75" cy="102" fill="#ADD1B2" rx="11" ry="11" style="stroke:#181818;stroke-width:1.0;"/><path d="M1066.5156,97.875 Q1066.6719,97.6563 1066.8594,97.5469 Q1067.0469,97.4375 1067.2656,97.4375 Q1067.6406,97.4375 1067.875,97.7031 Q1068.1094,97.9531 1068.1094,98.5625 L1068.1094,100.0156 Q1068.1094,100.625 1067.875,100.8906 Q1067.6406,101.1563 1067.2656,101.1563 Q1066.9219,101.1563 1066.7188,100.9531 Q1066.5156,100.7656 1066.4063,100.25 Q1066.3594,99.8906 1066.1719,99.7031 Q1065.8438,99.3281 1065.2344,99.1094 Q1064.625,98.8906 1064,98.8906 Q1063.2344,98.8906 1062.5938,99.2188 Q1061.9688,99.5469 1061.4688,100.2969 Q1060.9844,101.0469 1060.9844,102.0781 L1060.9844,103.1719 Q1060.9844,104.4063 1061.875,105.2344 Q1062.7656,106.0469 1064.3594,106.0469 Q1065.2969,106.0469 1065.9531,105.7969 Q1066.3438,105.6406 1066.7656,105.2031 Q1067.0313,104.9375 1067.1719,104.8594 Q1067.3281,104.7813 1067.5313,104.7813 Q1067.8594,104.7813 1068.1094,105.0469 Q1068.375,105.2969 1068.375,105.6406 Q1068.375,105.9844 1068.0313,106.3906 Q1067.5313,106.9688 1066.7344,107.2969 Q1065.6563,107.75 1064.3594,107.75 Q1062.8438,107.75 1061.6406,107.125 Q1060.6563,106.625 1059.9688,105.5625 Q1059.2813,104.4844 1059.2813,103.2031 L1059.2813,102.0469 Q1059.2813,100.7188 1059.8906,99.5781 Q1060.5156,98.4219 1061.6094,97.8125 Q1062.7031,97.1875 1063.9375,97.1875 Q1064.6719,97.1875 1065.3125,97.3594 Q1065.9688,97.5156 1066.5156,97.875 Z " fill="#000000"/><text fill="#000000" font-family="sans-serif" font-size="14" lengthAdjust="spacing" textLength="185" x="1084.25" y="107.7285">EnumerableRepositoryHelper</text><rect fill="#FFFFFF" height="17.0938" style="stroke:#181818;stroke-width:1.0;stroke-dasharray:2.0,2.0;" width="39" x="1571.5" y="83"/><text fill="#000000" font-family="sans-serif" font-size="12" font-style="italic" lengthAdjust="spacing" textLength="37" x="1572.5" y="96.457">TEntity</text><line style="stroke:#181818;stroke-width:0.5;" x1="755.5" x2="1606.5" y1="118" y2="118"/><rect fill="none" height="6" style="stroke:#C82930;stroke-width:1.0;" width="6" x="762.5" y="150.9141"/><text fill="#000000" font-family="sans-serif" font-size="14" lengthAdjust="spacing" textLength="204" x="774.5" y="158.1426">_entities : IEnumerable&lt;TEntity&gt;</text><line style="stroke:#181818;stroke-width:1.0;" x1="755.5" x2="1148.5" y1="134.8047" y2="134.8047"/><text fill="#000000" font-family="sans-serif" font-size="14" lengthAdjust="spacing" textLength="65" x="1148.5" y="140.0332">Properties</text><line style="stroke:#181818;stroke-width:1.0;" x1="1213.5" x2="1606.5" y1="134.8047" y2="134.8047"/><ellipse cx="765.5" cy="193.1328" fill="#84BE84" rx="3" ry="3" style="stroke:#038048;stroke-width:1.0;"/><text fill="#000000" font-family="sans-serif" font-size="14" lengthAdjust="spacing" textLength="391" x="774.5" y="197.3613">EnumerableRepositoryHelper(entities : IEnumerable&lt;TEntity&gt;)</text><line style="stroke:#181818;stroke-width:1.0;" x1="755.5" x2="1140.5" y1="174.0234" y2="174.0234"/><text fill="#000000" font-family="sans-serif" font-size="14" lengthAdjust="spacing" textLength="81" x="1140.5" y="179.252">Constructors</text><line style="stroke:#181818;stroke-width:1.0;" x1="1221.5" x2="1606.5" y1="174.0234" y2="174.0234"/><rect fill="#F24D5C" height="6" style="stroke:#C82930;stroke-width:1.0;" width="6" x="762.5" y="229.3516"/><text fill="#000000" font-family="sans-serif" font-size="14" lengthAdjust="spacing" textLength="827" x="774.5" y="236.5801">SortEntities&lt;TType&gt;(entities : IEnumerable&lt;TType&gt;, sortingFieldName : string, sortingOrder : SortingOrder) : IEnumerable&lt;TType&gt;</text><ellipse cx="765.5" cy="249.9609" fill="#84BE84" rx="3" ry="3" style="stroke:#038048;stroke-width:1.0;"/><text fill="#000000" font-family="sans-serif" font-size="14" lengthAdjust="spacing" textLength="488" x="774.5" y="254.1895">List([Required] options : DataModelOptions&lt;TEntity&gt;) : IEnumerable&lt;TEntity&gt;</text><ellipse cx="765.5" cy="267.5703" fill="#84BE84" rx="3" ry="3" style="stroke:#038048;stroke-width:1.0;"/><text fill="#000000" font-family="sans-serif" font-size="14" lengthAdjust="spacing" textLength="762" x="774.5" y="271.7988">List&lt;TDestination&gt;([Required] options : ComplexDataModelOptions&lt;TEntity, TDestination&gt;) : IEnumerable&lt;TDestination&gt;</text><ellipse cx="765.5" cy="285.1797" fill="#84BE84" rx="3" ry="3" style="stroke:#038048;stroke-width:1.0;"/><text fill="#000000" font-family="sans-serif" font-size="14" lengthAdjust="spacing" textLength="394" x="774.5" y="289.4082">Get([Required] options : DataModelOptions&lt;TEntity&gt;) : TEntity</text><ellipse cx="765.5" cy="302.7891" fill="#84BE84" rx="3" ry="3" style="stroke:#038048;stroke-width:1.0;"/><text fill="#000000" font-family="sans-serif" font-size="14" lengthAdjust="spacing" textLength="668" x="774.5" y="307.0176">Get&lt;TDestination&gt;([Required] options : ComplexDataModelOptions&lt;TEntity, TDestination&gt;) : TDestination</text><ellipse cx="765.5" cy="320.3984" fill="#84BE84" rx="3" ry="3" style="stroke:#038048;stroke-width:1.0;"/><text fill="#000000" font-family="sans-serif" font-size="14" lengthAdjust="spacing" textLength="181" x="774.5" y="324.627">Create(entity : TEntity) : void</text><ellipse cx="765.5" cy="338.0078" fill="#84BE84" rx="3" ry="3" style="stroke:#038048;stroke-width:1.0;"/><text fill="#000000" font-family="sans-serif" font-size="14" lengthAdjust="spacing" textLength="502" x="774.5" y="342.2363">Update(searchClause : Expression&lt;Func&lt;TEntity, bool&gt;&gt;, entity : TEntity) : void</text><ellipse cx="765.5" cy="355.6172" fill="#84BE84" rx="3" ry="3" style="stroke:#038048;stroke-width:1.0;"/><text fill="#000000" font-family="sans-serif" font-size="14" lengthAdjust="spacing" textLength="400" x="774.5" y="359.8457">Delete(searchClause : Expression&lt;Func&lt;TEntity, bool&gt;&gt;) : void</text><line style="stroke:#181818;stroke-width:1.0;" x1="755.5" x2="1154" y1="213.2422" y2="213.2422"/><text fill="#000000" font-family="sans-serif" font-size="14" lengthAdjust="spacing" textLength="54" x="1154" y="218.4707">Methods</text><line style="stroke:#181818;stroke-width:1.0;" x1="1208" x2="1606.5" y1="213.2422" y2="213.2422"/></g><!--MD5=[bf5006f3bf669c99cbaae16808a554b1]
class GenericRepositoryInMemoryInstaller--><g id="elem_GenericRepositoryInMemoryInstaller"><rect codeLine="22" fill="#F1F1F1" height="76.3125" id="GenericRepositoryInMemoryInstaller" rx="2.5" ry="2.5" style="stroke:#181818;stroke-width:0.5;" width="652" x="46" y="188.5"/><ellipse cx="253.75" cy="209.8516" fill="#ADD1B2" rx="11" ry="11" style="stroke:#181818;stroke-width:1.0;"/><path d="M256.5156,205.7266 Q256.6719,205.5078 256.8594,205.3984 Q257.0469,205.2891 257.2656,205.2891 Q257.6406,205.2891 257.875,205.5547 Q258.1094,205.8047 258.1094,206.4141 L258.1094,207.8672 Q258.1094,208.4766 257.875,208.7422 Q257.6406,209.0078 257.2656,209.0078 Q256.9219,209.0078 256.7188,208.8047 Q256.5156,208.6172 256.4063,208.1016 Q256.3594,207.7422 256.1719,207.5547 Q255.8438,207.1797 255.2344,206.9609 Q254.625,206.7422 254,206.7422 Q253.2344,206.7422 252.5938,207.0703 Q251.9688,207.3984 251.4688,208.1484 Q250.9844,208.8984 250.9844,209.9297 L250.9844,211.0234 Q250.9844,212.2578 251.875,213.0859 Q252.7656,213.8984 254.3594,213.8984 Q255.2969,213.8984 255.9531,213.6484 Q256.3438,213.4922 256.7656,213.0547 Q257.0313,212.7891 257.1719,212.7109 Q257.3281,212.6328 257.5313,212.6328 Q257.8594,212.6328 258.1094,212.8984 Q258.375,213.1484 258.375,213.4922 Q258.375,213.8359 258.0313,214.2422 Q257.5313,214.8203 256.7344,215.1484 Q255.6563,215.6016 254.3594,215.6016 Q252.8438,215.6016 251.6406,214.9766 Q250.6563,214.4766 249.9688,213.4141 Q249.2813,212.3359 249.2813,211.0547 L249.2813,209.8984 Q249.2813,208.5703 249.8906,207.4297 Q250.5156,206.2734 251.6094,205.6641 Q252.7031,205.0391 253.9375,205.0391 Q254.6719,205.0391 255.3125,205.2109 Q255.9688,205.3672 256.5156,205.7266 Z " fill="#000000"/><text fill="#000000" font-family="sans-serif" font-size="12" font-style="italic" lengthAdjust="spacing" textLength="42" x="367.25" y="205.957">«static»</text><text fill="#000000" font-family="sans-serif" font-size="14" lengthAdjust="spacing" textLength="228" x="274.25" y="223.127">GenericRepositoryInMemoryInstaller</text><line style="stroke:#181818;stroke-width:0.5;" x1="47" x2="697" y1="231.2031" y2="231.2031"/><line style="stroke:#181818;stroke-width:0.5;" x1="47" x2="697" y1="239.2031" y2="239.2031"/><ellipse cx="57" cy="253.5078" fill="#84BE84" rx="3" ry="3" style="stroke:#038048;stroke-width:1.0;"/><text fill="#000000" font-family="sans-serif" font-size="14" lengthAdjust="spacing" textLength="626" x="66" y="257.7363">static AddGenericRepositoryInMemoryInstaller(this services : IServiceCollection) : IServiceCollection</text></g><!--MD5=[640d4e287ab7bb85fb9bc46bd37b08ba]
link GenericInMemoryRepository to GenericInMemoryAsyncRepository--><g id="link_GenericInMemoryRepository_GenericInMemoryAsyncRepository"><path codeLine="57" d="M1093.72,710.08 C1088.11,731.44 1082.27,753.67 1076.59,775.32 " fill="none" id="GenericInMemoryRepository-to-GenericInMemoryAsyncRepository" style="stroke:#181818;stroke-width:1.0;"/><polygon fill="#181818" points="1073.26,787.99,1078.6523,783.2022,1076.3068,776.3832,1070.9145,781.171,1073.26,787.99" style="stroke:#181818;stroke-width:1.0;"/><text fill="#000000" font-family="sans-serif" font-size="13" lengthAdjust="spacing" textLength="70" x="1084" y="754.4951">composition</text></g><!--MD5=[52ee276c84f6ca62403615cee1ba0b23]
link EnumerableRepositoryHelper to GenericInMemoryRepository--><g id="link_EnumerableRepositoryHelper_GenericInMemoryRepository"><path codeLine="58" d="M1159.86,367.09 C1156.53,389.06 1153.09,411.82 1149.75,433.89 " fill="none" id="EnumerableRepositoryHelper-to-GenericInMemoryRepository" style="stroke:#181818;stroke-width:1.0;"/><polygon fill="#181818" points="1147.79,446.79,1152.6416,441.455,1149.583,434.9247,1144.7314,440.2597,1147.79,446.79" style="stroke:#181818;stroke-width:1.0;"/><text fill="#000000" font-family="sans-serif" font-size="13" lengthAdjust="spacing" textLength="70" x="1155" y="413.4951">composition</text></g><!--MD5=[47b240331ad9ea3d7fad9cec0b8b1b46]
@startuml GenericRepository.InMemory

package GenericRepository.Services.InMemory {
    package Helpers {
        class EnumerableRepositoryHelper<TEntity> {
            - - Properties - -
            - _entities : IEnumerable<TEntity>
            - - Constructors - -
            + EnumerableRepositoryHelper(entities : IEnumerable<TEntity>)
            - - Methods - -
            - SortEntities<TType>(entities : IEnumerable<TType>, sortingFieldName : string, sortingOrder : SortingOrder) : IEnumerable<TType>
            + List([Required] options : DataModelOptions<TEntity>) : IEnumerable<TEntity>
            + List<TDestination>([Required] options : ComplexDataModelOptions<TEntity, TDestination>) : IEnumerable<TDestination>
            + Get([Required] options : DataModelOptions<TEntity>) : TEntity
            + Get<TDestination>([Required] options : ComplexDataModelOptions<TEntity, TDestination>) : TDestination
            + Create(entity : TEntity) : void
            + Update(searchClause : Expression<Func<TEntity, bool>>, entity : TEntity) : void
            + Delete(searchClause : Expression<Func<TEntity, bool>>) : void
        }
    }

    package Host {
        class GenericRepositoryInMemoryInstaller <<static>> {
            + static AddGenericRepositoryInMemoryInstaller(this services : IServiceCollection) : IServiceCollection
        }
    }

    class GenericInMemoryAsyncRepository<TEntity> {
        - - Properties - -
        - _repository : GenericInMemoryRepository<TEntity>
        - - Constructors - -
        + GenericInMemoryAsyncRepository(entities : IEnumerable<TEntity>)
        - - Methods - -
        + GetAsync([Required] options : DataModelOptions<TEntity>, cancellationToken : CancellationToken = default) : Task<TEntity>
        + GetAsync<TDestination>([Required] options : ComplexDataModelOptions<TEntity, TDestination>, cancellationToken : CancellationToken = default) : Task<TDestination>
        + ListAsync([Required] options : DataModelOptions<TEntity>, cancellationToken : CancellationToken = default) : Task<IEnumerable<TEntity>>
        + ListAsync<TDestination>([Required] options : ComplexDataModelOptions<TEntity, TDestination>, cancellationToken : CancellationToken = default) : Task<IEnumerable<TDestination>>
        + CreateAsync([Required] entity : TEntity, cancellationToken : CancellationToken = default) : Task
        + UpdateAsync([Required] searchClause : Expression<Func<TEntity, bool>>, [Required] entity : TEntity, cancellationToken : CancellationToken = default) : Task
        + DeleteAsync([Required] Expression<Func<TEntity, bool>> searchClause, CancellationToken cancellationToken = default) : Task
    }

    class GenericInMemoryRepository<TEntity> {
        - - Properties - -
        - _helper : EnumerableRepositoryHelper<TEntity>
        - - Constructors - -
        + GenericInMemoryRepository(entities : IEnumerable<TEntity>)
        - - Methods - -
        + Get([Required] options : DataModelOptions<TEntity>) : TEntity
        + Get<TDestination>([Required] options : ComplexDataModelOptions<TEntity, TDestination>) : TDestination
        + List([Required] options : DataModelOptions<TEntity>) : IEnumerable<TEntity>
        + List<TDestination>([Required] options : ComplexDataModelOptions<TEntity, TDestination>) : IEnumerable<TDestination>
        + Create(entity : TEntity) : void
        + Update([Required] searchClause : Expression<Func<TEntity, bool>>, entity : TEntity) : void
        + Delete([Required] searchClause : Expression<Func<TEntity, bool>>) : void
    }

    GenericInMemoryAsyncRepository *-up- GenericInMemoryRepository : composition
    GenericInMemoryRepository *-up- EnumerableRepositoryHelper : composition
}

@enduml

PlantUML version 1.2022.7(Mon Aug 22 20:01:30 EEST 2022)
(GPL source distribution)
Java Runtime: Java(TM) SE Runtime Environment
JVM: Java HotSpot(TM) 64-Bit Server VM
Default Encoding: UTF-8
Language: en
Country: US
--></g></svg>